<mxfile host="app.diagrams.net" modified="2024-07-20T19:16:11.237Z" agent="Mozilla/5.0 (Macintosh; Intel Mac OS X 10_15_7) AppleWebKit/605.1.15 (KHTML, like Gecko) Version/17.5 Safari/605.1.15" etag="jXG9RY9IwSVsxXBI-hSu" version="24.7.1" type="device">
  <diagram name="Page-1" id="N3ASJMwi455AY8o_wbln">
    <mxGraphModel dx="874" dy="666" grid="1" gridSize="10" guides="1" tooltips="1" connect="1" arrows="1" fold="1" page="1" pageScale="1" pageWidth="827" pageHeight="1169" math="0" shadow="0">
      <root>
        <mxCell id="0" />
        <mxCell id="1" parent="0" />
        <mxCell id="ESICPFw4-Rt-9sBgKQfM-2" value="full_dataset" style="rounded=1;whiteSpace=wrap;html=1;" vertex="1" parent="1">
          <mxGeometry x="110" y="110" width="650" height="40" as="geometry" />
        </mxCell>
        <mxCell id="ESICPFw4-Rt-9sBgKQfM-3" value="background_set" style="rounded=1;whiteSpace=wrap;html=1;" vertex="1" parent="1">
          <mxGeometry x="110" y="170" width="200" height="40" as="geometry" />
        </mxCell>
        <mxCell id="ESICPFw4-Rt-9sBgKQfM-4" value="remainder_set" style="rounded=1;whiteSpace=wrap;html=1;" vertex="1" parent="1">
          <mxGeometry x="310" y="170" width="450" height="40" as="geometry" />
        </mxCell>
        <mxCell id="ESICPFw4-Rt-9sBgKQfM-5" value="unlabeled" style="rounded=1;whiteSpace=wrap;html=1;" vertex="1" parent="1">
          <mxGeometry x="310" y="220" width="90" height="40" as="geometry" />
        </mxCell>
        <mxCell id="ESICPFw4-Rt-9sBgKQfM-8" value="ground_truth" style="rounded=1;whiteSpace=wrap;html=1;" vertex="1" parent="1">
          <mxGeometry x="400" y="220" width="90" height="40" as="geometry" />
        </mxCell>
        <mxCell id="ESICPFw4-Rt-9sBgKQfM-9" value="unlabeled" style="rounded=1;whiteSpace=wrap;html=1;" vertex="1" parent="1">
          <mxGeometry x="400" y="270" width="90" height="40" as="geometry" />
        </mxCell>
        <mxCell id="ESICPFw4-Rt-9sBgKQfM-10" value="ground_truth" style="rounded=1;whiteSpace=wrap;html=1;" vertex="1" parent="1">
          <mxGeometry x="490" y="270" width="90" height="40" as="geometry" />
        </mxCell>
        <mxCell id="ESICPFw4-Rt-9sBgKQfM-11" value="unlabeled" style="rounded=1;whiteSpace=wrap;html=1;" vertex="1" parent="1">
          <mxGeometry x="490" y="320" width="90" height="40" as="geometry" />
        </mxCell>
        <mxCell id="ESICPFw4-Rt-9sBgKQfM-12" value="ground_truth" style="rounded=1;whiteSpace=wrap;html=1;" vertex="1" parent="1">
          <mxGeometry x="580" y="320" width="90" height="40" as="geometry" />
        </mxCell>
        <mxCell id="ESICPFw4-Rt-9sBgKQfM-13" value="unlabeled" style="rounded=1;whiteSpace=wrap;html=1;" vertex="1" parent="1">
          <mxGeometry x="580" y="370" width="90" height="40" as="geometry" />
        </mxCell>
        <mxCell id="ESICPFw4-Rt-9sBgKQfM-14" value="ground_truth" style="rounded=1;whiteSpace=wrap;html=1;" vertex="1" parent="1">
          <mxGeometry x="670" y="370" width="90" height="40" as="geometry" />
        </mxCell>
        <mxCell id="ESICPFw4-Rt-9sBgKQfM-21" value="Sliding Global Timeline Setting" style="text;html=1;align=center;verticalAlign=middle;whiteSpace=wrap;rounded=0;fontStyle=5;fontSize=18;" vertex="1" parent="1">
          <mxGeometry x="276" y="70" width="276" height="30" as="geometry" />
        </mxCell>
        <mxCell id="ESICPFw4-Rt-9sBgKQfM-23" value="" style="endArrow=none;dashed=1;html=1;dashPattern=1 3;strokeWidth=2;rounded=0;" edge="1" parent="1">
          <mxGeometry width="50" height="50" relative="1" as="geometry">
            <mxPoint x="310" y="480" as="sourcePoint" />
            <mxPoint x="310" y="170" as="targetPoint" />
          </mxGeometry>
        </mxCell>
        <mxCell id="ESICPFw4-Rt-9sBgKQfM-24" value="" style="endArrow=classic;html=1;rounded=0;" edge="1" parent="1">
          <mxGeometry width="50" height="50" relative="1" as="geometry">
            <mxPoint x="110" y="440" as="sourcePoint" />
            <mxPoint x="760" y="440" as="targetPoint" />
          </mxGeometry>
        </mxCell>
        <mxCell id="ESICPFw4-Rt-9sBgKQfM-25" value="Jan" style="text;html=1;align=center;verticalAlign=middle;whiteSpace=wrap;rounded=0;" vertex="1" parent="1">
          <mxGeometry x="230" y="450" width="60" height="30" as="geometry" />
        </mxCell>
        <mxCell id="ESICPFw4-Rt-9sBgKQfM-26" value="Mar" style="text;html=1;align=center;verticalAlign=middle;whiteSpace=wrap;rounded=0;" vertex="1" parent="1">
          <mxGeometry x="414" y="450" width="60" height="30" as="geometry" />
        </mxCell>
        <mxCell id="ESICPFw4-Rt-9sBgKQfM-27" value="Apr" style="text;html=1;align=center;verticalAlign=middle;whiteSpace=wrap;rounded=0;" vertex="1" parent="1">
          <mxGeometry x="505" y="450" width="60" height="30" as="geometry" />
        </mxCell>
        <mxCell id="ESICPFw4-Rt-9sBgKQfM-28" value="May" style="text;html=1;align=center;verticalAlign=middle;whiteSpace=wrap;rounded=0;" vertex="1" parent="1">
          <mxGeometry x="595" y="450" width="60" height="30" as="geometry" />
        </mxCell>
        <mxCell id="ESICPFw4-Rt-9sBgKQfM-29" value="Feb" style="text;html=1;align=center;verticalAlign=middle;whiteSpace=wrap;rounded=0;" vertex="1" parent="1">
          <mxGeometry x="325" y="450" width="60" height="30" as="geometry" />
        </mxCell>
        <mxCell id="ESICPFw4-Rt-9sBgKQfM-30" value="" style="endArrow=none;dashed=1;html=1;dashPattern=1 3;strokeWidth=2;rounded=0;" edge="1" parent="1">
          <mxGeometry width="50" height="50" relative="1" as="geometry">
            <mxPoint x="400" y="480" as="sourcePoint" />
            <mxPoint x="400" y="220" as="targetPoint" />
          </mxGeometry>
        </mxCell>
        <mxCell id="ESICPFw4-Rt-9sBgKQfM-31" value="" style="endArrow=none;dashed=1;html=1;dashPattern=1 3;strokeWidth=2;rounded=0;fontStyle=1" edge="1" parent="1">
          <mxGeometry width="50" height="50" relative="1" as="geometry">
            <mxPoint x="490" y="480" as="sourcePoint" />
            <mxPoint x="490" y="280" as="targetPoint" />
          </mxGeometry>
        </mxCell>
        <mxCell id="ESICPFw4-Rt-9sBgKQfM-32" value="" style="endArrow=none;dashed=1;html=1;dashPattern=1 3;strokeWidth=2;rounded=0;" edge="1" parent="1">
          <mxGeometry width="50" height="50" relative="1" as="geometry">
            <mxPoint x="580" y="480" as="sourcePoint" />
            <mxPoint x="580" y="320" as="targetPoint" />
          </mxGeometry>
        </mxCell>
        <mxCell id="ESICPFw4-Rt-9sBgKQfM-33" value="" style="endArrow=none;dashed=1;html=1;dashPattern=1 3;strokeWidth=2;rounded=0;" edge="1" parent="1">
          <mxGeometry width="50" height="50" relative="1" as="geometry">
            <mxPoint x="670" y="480" as="sourcePoint" />
            <mxPoint x="670" y="370" as="targetPoint" />
          </mxGeometry>
        </mxCell>
        <mxCell id="ESICPFw4-Rt-9sBgKQfM-35" value="" style="rounded=0;whiteSpace=wrap;html=1;strokeColor=none;fillColor=#dae8fc;gradientColor=none;opacity=60;" vertex="1" parent="1">
          <mxGeometry x="310" y="165" width="460" height="55" as="geometry" />
        </mxCell>
        <mxCell id="ESICPFw4-Rt-9sBgKQfM-36" value="" style="rounded=0;whiteSpace=wrap;html=1;strokeColor=none;fillColor=#dae8fc;gradientColor=none;opacity=60;" vertex="1" parent="1">
          <mxGeometry x="400" y="220" width="370" height="50" as="geometry" />
        </mxCell>
        <mxCell id="ESICPFw4-Rt-9sBgKQfM-37" value="" style="rounded=0;whiteSpace=wrap;html=1;strokeColor=none;fillColor=#dae8fc;gradientColor=none;opacity=60;" vertex="1" parent="1">
          <mxGeometry x="490" y="270" width="280" height="50" as="geometry" />
        </mxCell>
        <mxCell id="ESICPFw4-Rt-9sBgKQfM-38" value="" style="rounded=0;whiteSpace=wrap;html=1;strokeColor=none;fillColor=#dae8fc;gradientColor=none;opacity=60;" vertex="1" parent="1">
          <mxGeometry x="575" y="320" width="195" height="50" as="geometry" />
        </mxCell>
        <mxCell id="ESICPFw4-Rt-9sBgKQfM-39" value="" style="rounded=0;whiteSpace=wrap;html=1;strokeColor=none;fillColor=#dae8fc;gradientColor=none;opacity=60;" vertex="1" parent="1">
          <mxGeometry x="670" y="370" width="100" height="50" as="geometry" />
        </mxCell>
        <mxCell id="ESICPFw4-Rt-9sBgKQfM-40" value="" style="rounded=0;whiteSpace=wrap;html=1;strokeColor=none;fillColor=#d5e8d4;opacity=60;" vertex="1" parent="1">
          <mxGeometry x="105" y="165" width="205" height="55" as="geometry" />
        </mxCell>
        <mxCell id="ESICPFw4-Rt-9sBgKQfM-41" value="" style="rounded=0;whiteSpace=wrap;html=1;strokeColor=none;fillColor=#d5e8d4;opacity=60;" vertex="1" parent="1">
          <mxGeometry x="105" y="220" width="295" height="50" as="geometry" />
        </mxCell>
        <mxCell id="ESICPFw4-Rt-9sBgKQfM-42" value="" style="rounded=0;whiteSpace=wrap;html=1;strokeColor=none;fillColor=#d5e8d4;opacity=60;" vertex="1" parent="1">
          <mxGeometry x="105" y="270" width="385" height="50" as="geometry" />
        </mxCell>
        <mxCell id="ESICPFw4-Rt-9sBgKQfM-43" value="" style="rounded=0;whiteSpace=wrap;html=1;strokeColor=none;fillColor=#d5e8d4;opacity=60;" vertex="1" parent="1">
          <mxGeometry x="105" y="320" width="475" height="50" as="geometry" />
        </mxCell>
        <mxCell id="ESICPFw4-Rt-9sBgKQfM-44" value="" style="rounded=0;whiteSpace=wrap;html=1;strokeColor=none;fillColor=#d5e8d4;opacity=60;" vertex="1" parent="1">
          <mxGeometry x="105" y="370" width="565" height="50" as="geometry" />
        </mxCell>
        <mxCell id="ESICPFw4-Rt-9sBgKQfM-45" value="Released data" style="text;html=1;align=center;verticalAlign=middle;whiteSpace=wrap;rounded=0;" vertex="1" parent="1">
          <mxGeometry x="150" y="260" width="100" height="30" as="geometry" />
        </mxCell>
        <mxCell id="ESICPFw4-Rt-9sBgKQfM-46" value="Witheld data" style="text;html=1;align=center;verticalAlign=middle;whiteSpace=wrap;rounded=0;" vertex="1" parent="1">
          <mxGeometry x="670" y="260" width="100" height="30" as="geometry" />
        </mxCell>
        <mxCell id="ESICPFw4-Rt-9sBgKQfM-57" value="full_dataset" style="rounded=1;whiteSpace=wrap;html=1;" vertex="1" parent="1">
          <mxGeometry x="120" y="610" width="650" height="40" as="geometry" />
        </mxCell>
        <mxCell id="ESICPFw4-Rt-9sBgKQfM-58" value="background_set" style="rounded=1;whiteSpace=wrap;html=1;" vertex="1" parent="1">
          <mxGeometry x="120" y="670" width="200" height="40" as="geometry" />
        </mxCell>
        <mxCell id="ESICPFw4-Rt-9sBgKQfM-59" value="remainder_set" style="rounded=1;whiteSpace=wrap;html=1;" vertex="1" parent="1">
          <mxGeometry x="320" y="670" width="450" height="40" as="geometry" />
        </mxCell>
        <mxCell id="ESICPFw4-Rt-9sBgKQfM-60" value="unlabeled" style="rounded=1;whiteSpace=wrap;html=1;" vertex="1" parent="1">
          <mxGeometry x="320" y="720" width="90" height="40" as="geometry" />
        </mxCell>
        <mxCell id="ESICPFw4-Rt-9sBgKQfM-61" value="ground_truth" style="rounded=1;whiteSpace=wrap;html=1;" vertex="1" parent="1">
          <mxGeometry x="320" y="760" width="90" height="40" as="geometry" />
        </mxCell>
        <mxCell id="ESICPFw4-Rt-9sBgKQfM-62" value="unlabeled" style="rounded=1;whiteSpace=wrap;html=1;" vertex="1" parent="1">
          <mxGeometry x="410" y="800" width="90" height="40" as="geometry" />
        </mxCell>
        <mxCell id="ESICPFw4-Rt-9sBgKQfM-63" value="ground_truth" style="rounded=1;whiteSpace=wrap;html=1;" vertex="1" parent="1">
          <mxGeometry x="410" y="840" width="90" height="40" as="geometry" />
        </mxCell>
        <mxCell id="ESICPFw4-Rt-9sBgKQfM-64" value="unlabeled" style="rounded=1;whiteSpace=wrap;html=1;" vertex="1" parent="1">
          <mxGeometry x="500" y="880" width="90" height="40" as="geometry" />
        </mxCell>
        <mxCell id="ESICPFw4-Rt-9sBgKQfM-65" value="ground_truth" style="rounded=1;whiteSpace=wrap;html=1;" vertex="1" parent="1">
          <mxGeometry x="500" y="920" width="90" height="40" as="geometry" />
        </mxCell>
        <mxCell id="ESICPFw4-Rt-9sBgKQfM-66" value="unlabeled" style="rounded=1;whiteSpace=wrap;html=1;" vertex="1" parent="1">
          <mxGeometry x="590" y="960" width="90" height="40" as="geometry" />
        </mxCell>
        <mxCell id="ESICPFw4-Rt-9sBgKQfM-67" value="ground_truth" style="rounded=1;whiteSpace=wrap;html=1;" vertex="1" parent="1">
          <mxGeometry x="590" y="1000" width="90" height="40" as="geometry" />
        </mxCell>
        <mxCell id="ESICPFw4-Rt-9sBgKQfM-73" value="Sliding Global Timeline Setting" style="text;html=1;align=center;verticalAlign=middle;whiteSpace=wrap;rounded=0;fontStyle=5;fontSize=18;" vertex="1" parent="1">
          <mxGeometry x="286" y="570" width="276" height="30" as="geometry" />
        </mxCell>
        <mxCell id="ESICPFw4-Rt-9sBgKQfM-75" value="" style="endArrow=none;dashed=1;html=1;dashPattern=1 3;strokeWidth=2;rounded=0;" edge="1" parent="1">
          <mxGeometry width="50" height="50" relative="1" as="geometry">
            <mxPoint x="320" y="1090" as="sourcePoint" />
            <mxPoint x="320" y="670" as="targetPoint" />
          </mxGeometry>
        </mxCell>
        <mxCell id="ESICPFw4-Rt-9sBgKQfM-76" value="" style="endArrow=classic;html=1;rounded=0;" edge="1" parent="1">
          <mxGeometry width="50" height="50" relative="1" as="geometry">
            <mxPoint x="120" y="1050" as="sourcePoint" />
            <mxPoint x="770" y="1050" as="targetPoint" />
          </mxGeometry>
        </mxCell>
        <mxCell id="ESICPFw4-Rt-9sBgKQfM-77" value="Jan" style="text;html=1;align=center;verticalAlign=middle;whiteSpace=wrap;rounded=0;" vertex="1" parent="1">
          <mxGeometry x="240" y="1060" width="60" height="30" as="geometry" />
        </mxCell>
        <mxCell id="ESICPFw4-Rt-9sBgKQfM-78" value="Mar" style="text;html=1;align=center;verticalAlign=middle;whiteSpace=wrap;rounded=0;" vertex="1" parent="1">
          <mxGeometry x="424" y="1060" width="60" height="30" as="geometry" />
        </mxCell>
        <mxCell id="ESICPFw4-Rt-9sBgKQfM-79" value="Apr" style="text;html=1;align=center;verticalAlign=middle;whiteSpace=wrap;rounded=0;" vertex="1" parent="1">
          <mxGeometry x="515" y="1060" width="60" height="30" as="geometry" />
        </mxCell>
        <mxCell id="ESICPFw4-Rt-9sBgKQfM-80" value="May" style="text;html=1;align=center;verticalAlign=middle;whiteSpace=wrap;rounded=0;" vertex="1" parent="1">
          <mxGeometry x="605" y="1060" width="60" height="30" as="geometry" />
        </mxCell>
        <mxCell id="ESICPFw4-Rt-9sBgKQfM-81" value="Feb" style="text;html=1;align=center;verticalAlign=middle;whiteSpace=wrap;rounded=0;" vertex="1" parent="1">
          <mxGeometry x="335" y="1060" width="60" height="30" as="geometry" />
        </mxCell>
        <mxCell id="ESICPFw4-Rt-9sBgKQfM-82" value="" style="endArrow=none;dashed=1;html=1;dashPattern=1 3;strokeWidth=2;rounded=0;" edge="1" parent="1">
          <mxGeometry width="50" height="50" relative="1" as="geometry">
            <mxPoint x="410" y="1090" as="sourcePoint" />
            <mxPoint x="410" y="720" as="targetPoint" />
          </mxGeometry>
        </mxCell>
        <mxCell id="ESICPFw4-Rt-9sBgKQfM-83" value="" style="endArrow=none;dashed=1;html=1;dashPattern=1 3;strokeWidth=2;rounded=0;fontStyle=1" edge="1" parent="1">
          <mxGeometry width="50" height="50" relative="1" as="geometry">
            <mxPoint x="500" y="1090" as="sourcePoint" />
            <mxPoint x="500" y="780" as="targetPoint" />
          </mxGeometry>
        </mxCell>
        <mxCell id="ESICPFw4-Rt-9sBgKQfM-84" value="" style="endArrow=none;dashed=1;html=1;dashPattern=1 3;strokeWidth=2;rounded=0;" edge="1" parent="1">
          <mxGeometry width="50" height="50" relative="1" as="geometry">
            <mxPoint x="590" y="1090" as="sourcePoint" />
            <mxPoint x="590" y="820" as="targetPoint" />
          </mxGeometry>
        </mxCell>
        <mxCell id="ESICPFw4-Rt-9sBgKQfM-85" value="" style="endArrow=none;dashed=1;html=1;dashPattern=1 3;strokeWidth=2;rounded=0;" edge="1" parent="1">
          <mxGeometry width="50" height="50" relative="1" as="geometry">
            <mxPoint x="680" y="1090" as="sourcePoint" />
            <mxPoint x="680" y="870" as="targetPoint" />
          </mxGeometry>
        </mxCell>
        <mxCell id="ESICPFw4-Rt-9sBgKQfM-52" value="" style="rounded=0;whiteSpace=wrap;html=1;strokeColor=none;fillColor=#d5e8d4;opacity=60;" vertex="1" parent="1">
          <mxGeometry x="115" y="665" width="205" height="55" as="geometry" />
        </mxCell>
        <mxCell id="ESICPFw4-Rt-9sBgKQfM-47" value="" style="rounded=0;whiteSpace=wrap;html=1;strokeColor=none;fillColor=#dae8fc;gradientColor=none;opacity=60;" vertex="1" parent="1">
          <mxGeometry x="320" y="665" width="460" height="55" as="geometry" />
        </mxCell>
        <mxCell id="ESICPFw4-Rt-9sBgKQfM-89" value="" style="rounded=0;whiteSpace=wrap;html=1;strokeColor=none;fillColor=#d5e8d4;opacity=60;" vertex="1" parent="1">
          <mxGeometry x="115" y="720" width="295" height="40" as="geometry" />
        </mxCell>
        <mxCell id="ESICPFw4-Rt-9sBgKQfM-90" value="" style="rounded=0;whiteSpace=wrap;html=1;strokeColor=none;fillColor=#dae8fc;gradientColor=none;opacity=60;" vertex="1" parent="1">
          <mxGeometry x="320" y="760" width="460" height="40" as="geometry" />
        </mxCell>
        <mxCell id="ESICPFw4-Rt-9sBgKQfM-91" value="" style="rounded=0;whiteSpace=wrap;html=1;strokeColor=none;fillColor=#dae8fc;gradientColor=none;opacity=60;" vertex="1" parent="1">
          <mxGeometry x="410" y="840" width="370" height="40" as="geometry" />
        </mxCell>
        <mxCell id="ESICPFw4-Rt-9sBgKQfM-92" value="" style="rounded=0;whiteSpace=wrap;html=1;strokeColor=none;fillColor=#dae8fc;gradientColor=none;opacity=60;" vertex="1" parent="1">
          <mxGeometry x="500" y="920" width="280" height="40" as="geometry" />
        </mxCell>
        <mxCell id="ESICPFw4-Rt-9sBgKQfM-93" value="" style="rounded=0;whiteSpace=wrap;html=1;strokeColor=none;fillColor=#d5e8d4;opacity=60;" vertex="1" parent="1">
          <mxGeometry x="115" y="800" width="385" height="40" as="geometry" />
        </mxCell>
        <mxCell id="ESICPFw4-Rt-9sBgKQfM-94" value="" style="rounded=0;whiteSpace=wrap;html=1;strokeColor=none;fillColor=#d5e8d4;opacity=60;" vertex="1" parent="1">
          <mxGeometry x="115" y="760" width="205" height="40" as="geometry" />
        </mxCell>
        <mxCell id="ESICPFw4-Rt-9sBgKQfM-95" value="" style="rounded=0;whiteSpace=wrap;html=1;strokeColor=none;fillColor=#dae8fc;gradientColor=none;opacity=60;" vertex="1" parent="1">
          <mxGeometry x="410" y="720" width="370" height="40" as="geometry" />
        </mxCell>
      </root>
    </mxGraphModel>
  </diagram>
</mxfile>
